<svg width="104.004" height="92.501" viewBox="0 0 104.004 92.501" xmlns="http://www.w3.org/2000/svg"><g id="svgGroup" stroke-linecap="round" fill-rule="evenodd" font-size="9pt" stroke="#000" stroke-width="0.25mm" fill="#000" style="stroke:#000;stroke-width:0.25mm;fill:#000"><path d="M 101.504 0.201 L 102.204 0.201 L 102.754 0.201 L 103.204 0.201 Q 103.404 0.201 103.604 0.151 Q 103.804 0.101 104.004 0.101 A 245.85 245.85 0 0 0 103.298 3.575 A 225.727 225.727 0 0 0 103.254 3.801 A 206.181 206.181 0 0 0 102.642 7.088 A 188.369 188.369 0 0 0 102.604 7.301 Q 100.404 18.101 98.004 25.951 Q 95.604 33.801 92.404 41.001 L 92.054 41.701 A 4.607 4.607 0 0 0 91.817 42.263 A 4.239 4.239 0 0 0 91.804 42.301 Q 86.604 53.501 79.304 63.551 A 113.959 113.959 0 0 1 70.87 73.892 A 90.173 90.173 0 0 1 64.004 80.601 Q 59.204 84.901 53.554 87.751 A 44.029 44.029 0 0 1 44.094 91.271 A 40.247 40.247 0 0 1 42.104 91.701 Q 40.304 92.101 38.454 92.301 Q 36.604 92.501 34.804 92.501 Q 27.804 92.501 21.054 90.151 Q 14.304 87.801 9.004 83.401 Q 4.504 79.601 2.254 74.451 A 27.211 27.211 0 0 1 0.059 65.084 A 31.93 31.93 0 0 1 0.004 63.201 Q 0.004 52.001 8.604 44.601 Q 17.204 37.201 30.204 37.201 A 51.504 51.504 0 0 1 40.014 38.19 A 68.848 68.848 0 0 1 48.254 40.351 A 91.091 91.091 0 0 1 61.028 45.669 A 110.679 110.679 0 0 1 67.804 49.401 Q 69.604 50.501 71.354 51.651 Q 73.104 52.801 74.904 54.001 L 69.404 57.601 A 81.229 81.229 0 0 0 60.742 52.033 A 90.45 90.45 0 0 0 59.404 51.301 Q 54.004 48.401 48.504 46.301 A 84.619 84.619 0 0 0 38.317 42.998 A 76.261 76.261 0 0 0 36.454 42.551 Q 31.027 41.319 26.557 41.211 A 35.231 35.231 0 0 0 25.704 41.201 A 30.498 30.498 0 0 0 18.149 42.092 A 22.804 22.804 0 0 0 9.154 46.601 A 18.012 18.012 0 0 0 4.346 52.536 A 17.549 17.549 0 0 0 2.604 60.401 Q 2.604 61.001 2.654 61.701 Q 2.704 62.401 2.804 63.001 Q 3.404 68.101 6.404 73.051 Q 9.404 78.001 14.004 81.301 Q 16.386 83.002 19.889 84.377 A 42.377 42.377 0 0 0 21.154 84.851 Q 25.504 86.401 30.104 87.101 Q 31.804 87.401 33.554 87.551 Q 35.304 87.701 36.904 87.701 A 42.166 42.166 0 0 0 63.818 77.997 A 55.635 55.635 0 0 0 67.004 75.251 Q 77.499 65.5 85.418 48.541 A 146.787 146.787 0 0 0 89.604 38.601 Q 90.104 37.201 90.554 35.801 Q 91.004 34.401 91.504 33.001 Q 92.204 30.801 92.754 28.551 A 110.766 110.766 0 0 0 93.383 25.836 A 91.433 91.433 0 0 0 93.704 24.301 L 95.504 15.301 Q 95.904 13.301 96.104 12.401 L 96.104 12.351 L 96.104 12.301 Q 96.173 11.957 96.266 11.518 A 127.764 127.764 0 0 1 96.354 11.101 Q 96.504 10.401 96.804 8.901 Q 97.081 7.795 97.187 7.284 A 10.404 10.404 0 0 0 97.204 7.201 Q 97.296 6.744 97.304 6.372 A 3.308 3.308 0 0 0 97.304 6.301 A 0.3 0.3 0 0 0 97.338 6.299 Q 97.371 6.295 97.388 6.283 A 0.038 0.038 0 0 0 97.404 6.251 L 97.404 6.101 A 2.227 2.227 0 0 1 97.409 5.961 Q 97.42 5.791 97.454 5.551 A 11.199 11.199 0 0 1 97.499 5.267 Q 97.52 5.14 97.547 4.998 A 22.859 22.859 0 0 1 97.604 4.701 Q 96.704 4.801 96.054 4.901 Q 95.496 4.986 95.048 4.999 A 5.325 5.325 0 0 1 94.904 5.001 Q 94.504 5.101 94.104 5.101 L 93.204 5.101 L 88.604 5.001 A 15.155 15.155 0 0 0 84.906 5.429 A 11.047 11.047 0 0 0 80.404 7.701 A 8.72 8.72 0 0 0 77.228 14.057 A 11.527 11.527 0 0 0 77.204 14.801 Q 77.204 15.801 77.354 16.701 Q 77.504 17.601 77.804 18.501 A 12.273 12.273 0 0 0 78.694 20.376 Q 79.188 21.235 79.852 22.121 A 21.239 21.239 0 0 0 80.104 22.451 Q 81.261 23.933 83.046 25.755 A 71.769 71.769 0 0 0 84.504 27.201 A 31.105 31.105 0 0 1 85.518 28.188 Q 85.967 28.647 86.334 29.068 A 14.049 14.049 0 0 1 86.854 29.701 A 9.35 9.35 0 0 1 87.611 30.835 A 7.204 7.204 0 0 1 88.104 31.901 Q 88.304 32.401 88.404 32.951 A 6.333 6.333 0 0 1 88.503 33.951 A 7.09 7.09 0 0 1 88.504 34.101 Q 88.504 34.701 88.404 35.351 Q 88.304 36.001 88.204 36.701 A 16.515 16.515 0 0 1 85.943 41.635 A 19.196 19.196 0 0 1 85.404 42.401 Q 83.404 45.101 81.104 46.101 A 6.847 6.847 0 0 1 80.558 46.294 A 5.42 5.42 0 0 1 80.154 46.401 A 4.269 4.269 0 0 1 79.39 46.497 A 4.864 4.864 0 0 1 79.204 46.501 A 5.633 5.633 0 0 1 77.199 46.156 A 5.012 5.012 0 0 1 75.154 44.701 A 6.298 6.298 0 0 1 73.73 41.616 A 8.75 8.75 0 0 1 73.604 40.101 L 73.604 39.651 Q 73.604 39.412 73.696 39.037 A 5.454 5.454 0 0 1 73.704 39.001 A 20.183 20.183 0 0 0 74.873 40.468 Q 75.483 41.16 76.085 41.689 A 9.515 9.515 0 0 0 76.854 42.301 A 6.467 6.467 0 0 0 78.196 43.043 A 4.843 4.843 0 0 0 80.004 43.401 A 5.5 5.5 0 0 0 81.46 43.218 A 4.066 4.066 0 0 0 83.354 42.101 A 4.358 4.358 0 0 0 84.47 39.947 A 6.393 6.393 0 0 0 84.604 38.601 A 8.979 8.979 0 0 0 84.579 37.908 A 7.738 7.738 0 0 0 84.554 37.651 Q 84.504 37.201 84.304 36.801 A 6.013 6.013 0 0 0 83.719 35.563 Q 83.363 34.982 82.854 34.401 Q 81.804 33.201 79.804 31.301 Q 79.304 30.801 78.854 30.401 Q 78.404 30.001 78.004 29.501 A 18.231 18.231 0 0 1 76.217 27.229 A 13.464 13.464 0 0 1 74.854 24.601 A 14.284 14.284 0 0 1 74.067 21.43 A 18.889 18.889 0 0 1 73.904 18.901 A 18.054 18.054 0 0 1 79.379 5.776 A 22.973 22.973 0 0 1 79.554 5.601 A 19.259 19.259 0 0 1 86.136 1.231 A 18.482 18.482 0 0 1 92.904 0.001 L 94.954 0.001 A 29.841 29.841 0 0 1 96.451 0.04 A 35.999 35.999 0 0 1 97.404 0.101 L 97.954 0.101 L 98.404 0.101 L 99.154 0.101 L 99.904 0.101 A 5.207 5.207 0 0 0 100.51 0.186 A 4.32 4.32 0 0 0 100.854 0.201 L 101.504 0.201 Z" vector-effect="non-scaling-stroke"/></g></svg>